<?xml version="1.0" encoding="utf-8"?>
<!-- Generator: Adobe Illustrator 23.1.1, SVG Export Plug-In . SVG Version: 6.00 Build 0)  -->
<svg version="1.1" id="Ebene_1" xmlns="http://www.w3.org/2000/svg" xmlns:xlink="http://www.w3.org/1999/xlink" x="0px" y="0px"
	 viewBox="0 0 400 100" style="enable-background:new 0 0 400 100;" xml:space="preserve">
<g>
	<path d="M151.6,29.2c-3.9,0-7.8,0-11.4,0c0,2.4,0.1,5.1,0.1,7.3c1.5,0,4.5-0.2,6.2,0.6c1.3,0.6,2,1.1,2.2,3v10.6
		c-0.2,0.6-0.7,0.2-1.1,0.2l-18.3-16.1l-6.4-5.7l-22.4,0.1c0,2.4,0.1,5,0.1,7.2c2.1,0,3.3-0.1,5.4,0.2c1.1,0.5,2.9,1.3,3.1,3.8v18.8
		c-0.4,2.7-1.7,2.7-4,3.4c-1.8,0.4-3.8,0.2-5.1,0.2v7.7l5,0.1l17.1,0.1l6.2-0.1v-4.1l-0.1-3.7h-5.4c-1.5-0.2-3.2-1.7-3.7-3.2
		L119,46.4v-2.3l30.8,26.6h9.5l-0.1-30l0.2-1.6c0.6-1.1,1.7-1.8,3-2c1.8-0.2,4.1-0.2,6-0.2c0-2.3-0.1-5.5-0.1-7.7
		C163,29.3,156.8,29.2,151.6,29.2z"/>
	<path d="M217.6,45.9c-0.2-0.2-0.4-0.7,0-1c4.7-2.7,9.4-5.7,14.5-7.6c1.4-0.4,3.5-0.2,5-0.2v-7.9h-31v7.9c1.8,0.1,4.5-0.1,4.6,1
		c0.2,1.2-0.6,1.5-2.1,2.4l-12.4,6.9c-0.4,0.1-0.6-0.1-0.8-0.4c0-3.4-0.5-7.6,1.4-9c1.7-1.3,3.6-1,5.2-1c0-2.5,0.1-5.6,0.1-7.9
		h-30.4V37c1.5,0,3-0.1,5,0c2.2,0.2,3.8,1.2,4.3,4.5v17c-0.2,5.8-6.1,4.7-9.2,5.1v7.1h29.5l0.1-7.2c-3,0-4.1-0.4-5.1-1.5
		c-1.3-1.5-0.8-4.5-0.8-4.5l9.2-5.2c0.4-0.1,0.5-0.1,0.7,0.1c2.5,3,7.3,8.4,5.6,10c-1,1.1-3.2,1.1-5,1.1c0,2.2,0.1,5,0.1,7.2
		c3-0.1,9.9,0,12.9,0l18.7-0.1l0.1-7.2c-2.4-0.2-5.5,0-7.3-1.5C226,56.7,221.9,51.2,217.6,45.9z"/>
	<path d="M305.2,29.2H280v7.9c2.9-0.1,6.3-0.6,4.4,2.7l-8,7.6c-1,0.7-1.1-0.1-1.2-0.1c-3.2-2.9-11.4-9.7-5.9-10.1
		c1.5,0.1,1.8-0.1,3.5,0c0.1-2.3-0.1-5.5-0.1-7.9h-32.3l0.1,7.8c1.3,0,2.4,0.1,3.7,0.1c3.8,1.1,9.7,7.4,12.1,10.2l8.6,8.4
		c0.2,1.7,0.4,4-0.7,5.6c-2.2,2.4-5.5,2.3-8.4,2.3v7.2H290c0-2.2-0.1-5.6-0.1-7.9c-2.7-0.1-3.2,0-4.9,0c-2.4-0.2-2.9-0.7-3.8-1.8
		c-0.8-1.8-0.6-3.4-0.5-5.3L294,42.6l5.2-4.7c1.5-1,4.1-0.8,6-0.8V29.2z"/>
	<path d="M351.8,29.6c-12.6-4.3-28.6-3.3-39.6,3.7c-7,5.6-9.9,14.5-7.3,22.9c2,8.2,10.8,13.9,18.5,15.4c13,3,28.1,1.8,38-6.8
		c5.9-5.9,7.6-15.6,4.3-23.3C363.2,35.7,357.4,31.3,351.8,29.6z M349.3,56.7c-2.8,5.6-8.4,8.3-14.4,8.2c-5.1-0.4-9.9-3.2-12.5-7.8
		c-1-2.2-1.6-4.3-1.7-7.4c0.1-1.4,0.1-2.1,0.2-3.2c1.1-5.4,6.4-10.5,11.9-11.3c6.1-1.1,11.9,1.3,15.7,6.4
		C351.2,45.8,351.7,52.3,349.3,56.7z"/>
	<path d="M84,30.5c-10.9-4.6-25.9-4.8-37-0.5c-6.9,2.4-13.4,9.5-14.2,16.8c-0.8,7.7,1.8,14.5,7.8,19.4c12.3,8.6,32.7,9,46,2
		c6.6-4.1,11.1-11,10.8-19C97.4,41.1,91.2,33.6,84,30.5z M79.4,55.7c-2.4,6-8.6,9.1-14.7,9.3c-4.9-0.5-9.4-2.4-12.4-6.6
		c-2.2-3.6-3.5-8.4-2-12.9c1.8-5.4,7.3-10.2,13.2-10.6c6.1-0.2,11.8,2.1,15.1,7.6C80.8,46.2,81.3,52,79.4,55.7z"/>
</g>
</svg>
